<svg width="266" height="315" viewBox="0 0 266 315" fill="none" xmlns="http://www.w3.org/2000/svg">
<path d="M159.706 307.216L160.715 208.278L160.699 194.858L160.751 191.712C204.02 205.4 240.223 188.54 256.268 160.749C266.812 142.485 268.428 120.126 260.9 99.546C253.413 78.2836 236.324 59.5941 212.237 45.688L134.95 1.06606C132.038 -0.614901 128.281 0.391914 126.753 3.03874L114.68 23.9487L114.577 30.2411L114.424 30.5058L113.868 112.766L76.0182 90.9135L1.44461 220.079C-0.236352 222.99 0.770468 226.748 3.68198 228.429L34.6499 246.308C37.2967 247.836 41.0542 246.829 42.7352 243.918L93.4697 156.043L113.321 167.504L113.072 180.771L112.183 286.837L112.254 287.937C112.284 289.718 113.261 291.694 115.114 292.764L150.581 313.241C153.493 314.922 156.985 313.762 158.819 310.586C159.278 309.792 159.736 308.998 159.665 307.898L159.706 307.216ZM161.342 127.118L161.93 71.6971L188.398 86.9786C216.984 103.483 221.895 124.317 214.713 136.757C208.6 147.344 192.348 153.489 169.228 144.022C166.693 142.912 163.893 141.648 161.246 140.12L161.342 127.118Z" fill="#E8EFFC"/>
</svg>
